
<svg xmlns="http://www.w3.org/2000/svg"><symbol id="compost" viewBox="0 0 64 64"><path d="M63.6 50.5a4.9 4.9 0 0 0-4.7-3.1 24.9 24.9 0 0 1-9.7-3l-.7-.4a22.8 22.8 0 0 0 5.3-1.3 4 4 0 0 0 2.8-4.5 4.1 4.1 0 0 0-4.2-3.5 16.9 16.9 0 0 1-10.9-4.6c-2.4-2.3-4.8-4.9-4.5-8.9a6.4 6.4 0 0 0-3.1-5.8h-.1L35 7.7a2.1 2.1 0 0 0-.4-1.8 2.2 2.2 0 0 0-1.7-.3l-6.8 1.1a2.4 2.4 0 0 0-1.2.7 1.9 1.9 0 0 0-.1 1.5v.7c.5 1.9.9 3.7 1.3 5.5s.1.3-.1.4a6.6 6.6 0 0 0-2.8 5.1c-.1.4-.1.9-.2 1.3a28.3 28.3 0 0 1-.2 2.9 20.4 20.4 0 0 1-11 16.3A19.7 19.7 0 0 1 4 43.3a4.5 4.5 0 0 0-4 4.2A4.3 4.3 0 0 0 3.2 52a24.6 24.6 0 0 0 4.7 1 23.4 23.4 0 0 0 17.9-5.2l2.1-1.9.5-.5a27.4 27.4 0 0 0 23.3 13 28.2 28.2 0 0 0 9-1.4 4.8 4.8 0 0 0 2.9-6.5zM30.9 14.3h-1.7l-1.1-4.8 3.6-.6zm-5 17.5a1.6 1.6 0 0 0-1 .5 1.9 1.9 0 0 0-.4 1.5 27.4 27.4 0 0 0 2.2 8.3c.1.3.1.3 0 .5a20.8 20.8 0 0 1-16.1 7.5 18.1 18.1 0 0 1-6.5-1 1.4 1.4 0 0 1-1-1.4 1.3 1.3 0 0 1 1.2-1.3l1.2-.2a19.4 19.4 0 0 0 5.3-1.2c8.3-3.5 13.4-9.7 15-18.5a23.8 23.8 0 0 0 .4-4.6V21a3.8 3.8 0 0 1 7.6-.4 28.1 28.1 0 0 1 .1 2.9c0 .7.1 1.3.1 2a26.1 26.1 0 0 0 4.1 12.3 26.2 26.2 0 0 0 17.2 12.1 16.4 16.4 0 0 0 3.2.5h.5a1.9 1.9 0 0 1 1.9 1.7 1.8 1.8 0 0 1-1.4 1.9 24 24 0 0 1-23.2-4.2 23.6 23.6 0 0 1-8.4-14.3l-.3-1.8v-.3a1.7 1.7 0 0 0-1.6-1.6zm20.3 9.1a3.2 3.2 0 0 1-3-1.4 24.8 24.8 0 0 1-4.7-8.1l.2.3a20.2 20.2 0 0 0 12.9 6h1a1 1 0 0 1 .2 2 19.4 19.4 0 0 1-6.6 1.2zm-17.7 3.7z"/></symbol><symbol id="logo" viewBox="0 0 64 64"><path d="M21.2 0l4.9 1.9 6.7 2.9.9.5a1.4 1.4 0 0 1 .3 1.9 2.7 2.7 0 0 1-.7.8l-8.9 7.4c-1.3 1.1-2.5.6-2.8-1.2s-.3-2.2-.5-3.3a.6.6 0 0 0-.1-.4 24.2 24.2 0 0 0-6.6 4.3 23.5 23.5 0 0 0-8 15.3 21.7 21.7 0 0 0-.2 3.6c-.1.2-.1.5-.2.8a3.6 3.6 0 0 1-3.8 2.2 2.5 2.5 0 0 1-1.9-1.8.6.6 0 0 1-.1-.4 3 3 0 0 1-.2-1c0-.7.1-1.5.1-2.2A31 31 0 0 1 18.7 4.8l1.4-.6a15.5 15.5 0 0 1-.4-2.1 2 2 0 0 1 .8-2zM64 41a2.6 2.6 0 0 1-1.1 1.6l-8.5 6.7-.8.5a1.3 1.3 0 0 1-1.8-.6.1.1 0 0 1-.1-.1l-.3-.9L49.6 37a2.8 2.8 0 0 1-.1-.9 1.3 1.3 0 0 1 1.7-1.3l1.3.5 2.1.8h.1c.1-.7.1-1.4.2-2.1a24.5 24.5 0 0 0-12-22 3.3 3.3 0 0 1-1.6-2.8 3 3 0 0 1 2.1-2.7 4 4 0 0 1 3.2.5 30.9 30.9 0 0 1 14.2 22.8 31.6 31.6 0 0 1-.3 8.7l2 .9a2.3 2.3 0 0 1 1.5 1.2zM16.6 53.4l1.8 1.1a23.6 23.6 0 0 0 13 3.3 23 23 0 0 0 11.1-3.2 2.8 2.8 0 0 1 4.3 2.3 3.4 3.4 0 0 1-1 2.7 9.1 9.1 0 0 1-1.6 1.1 29.9 29.9 0 0 1-11.3 3.2 29.4 29.4 0 0 1-16.2-3.3 31.5 31.5 0 0 1-4.7-3 .3.3 0 0 0-.5-.1l-2.1 1.8-1 .6a1.1 1.1 0 0 1-1.5-.6 5.6 5.6 0 0 1-.4-1.2c-.4-3.3-.8-6.7-1.3-10.1 0-.5-.1-1-.1-1.5a1.6 1.6 0 0 1 2.2-1.7l4.1 1.6 6.3 2.4.9.5a1.3 1.3 0 0 1 .4 1.8c0 .1 0 .1-.1.2a6 6 0 0 1-.8.8zm24.9-22.8c-.1-.7-.1-1.3-.2-2s-.1-.1-.1-.2a18.9 18.9 0 0 0-1-4.1 15.9 15.9 0 0 0-3.2-5.5l-.6-.5H36a1.1 1.1 0 0 0-.6.7 12.9 12.9 0 0 1-4.3 5.5l-2.6 1.7-2.9 2.1a7.2 7.2 0 0 0-2.7 5.1 18.7 18.7 0 0 0 .5 5.8 5.2 5.2 0 0 1 .2 1.1 17.3 17.3 0 0 1-6.4 1.2 31.1 31.1 0 0 1 .4 3.2l1.9-.3a24.1 24.1 0 0 0 6.5-2.3 18 18 0 0 0 7.2-6.2 26.7 26.7 0 0 0 3.8-9.2v-.2a17.9 17.9 0 0 1-2.5 10.6 19.4 19.4 0 0 1-8.1 7.2h.1a16.1 16.1 0 0 0 6.9 0 10.1 10.1 0 0 0 6.4-5 15.8 15.8 0 0 0 1.7-7.7 4.5 4.5 0 0 1 0-1z"/></symbol><symbol id="tree" viewBox="0 0 64 64"><path d="M58.5 26.5a26.5 26.5 0 1 0-28.4 26.4v9.3a1.9 1.9 0 1 0 3.8 0v-9.3a26.6 26.6 0 0 0 24.6-26.4zM33.9 49.1v-5.8a9.4 9.4 0 0 0 5.9-2.8 11.6 11.6 0 0 0 2.9-8.4 1.9 1.9 0 0 0-1.9-1.8 1.8 1.8 0 0 0-1.8 2s.1 3.5-1.9 5.6a5.2 5.2 0 0 1-3.2 1.6v-8.9a6.5 6.5 0 0 0 4-2.1 8.3 8.3 0 0 0 2.2-6.3 1.9 1.9 0 0 0-1.9-1.8 1.8 1.8 0 0 0-1.8 2 6.3 6.3 0 0 1-1.2 3.6 3.3 3.3 0 0 1-1.3.7V14.5a1.9 1.9 0 0 0-3.8 0v12c-2.2-1.1-2.4-3.7-2.5-4.3a1.9 1.9 0 0 0-1.9-1.8 1.8 1.8 0 0 0-1.8 2c.1 2.5 1.6 7 6.2 8.1v8.8C25.5 38 25 32.8 25 32.1a1.8 1.8 0 0 0-1.9-1.8 1.9 1.9 0 0 0-1.9 2c.2 3.4 2.3 9.7 8.9 10.9v5.9a22.7 22.7 0 1 1 3.8 0z"/></symbol><symbol id="star" viewBox="0 0 64 64"><path d="M34.4 1.5l8.4 17.9 19 2.9a2.6 2.6 0 0 1 1.5 4.5L49.5 41l3.2 19.9a2.7 2.7 0 0 1-3.9 2.8L32 54.4l-16.8 9.3a2.7 2.7 0 0 1-3.9-2.8L14.5 41 .7 26.8a2.6 2.6 0 0 1 1.5-4.5l19-2.9 8.4-17.9a2.7 2.7 0 0 1 4.8 0z"/></symbol><symbol id="recycle" viewBox="0 0 64 64"><path d="M64 37.1c-3.8 6.2-7.5 12.4-11.2 18.7a5.2 5.2 0 0 1-4.7 2.6h-7.4v5.5h-.4c-.5-.9-5.1-9.1-6.8-12.3a2 2 0 0 1-.2-1.5c2.3-4.5 4.6-9 7.2-13.8V43h10.7l-8.3-15 13.5-8L64 34.2zM23.4 0h18.2a5.1 5.1 0 0 1 4.8 2.9c1.2 2.2 2.4 4.7 3.7 7l5.1-3c-.6 1.3-5 9.6-6.7 12.7a2.3 2.3 0 0 1-1.3 1.1c-4.8.3-14.7.6-14.8.5l5.4-3.3c-1.8-3.2-3.6-6.3-5.4-9.7-2.9 5.3-5.6 10.3-8.3 15.5l-13.7-7.8c.9-1.7 4.8-8.7 5.7-10.7a8.3 8.3 0 0 1 2-3A7.5 7.5 0 0 1 23.4 0zM4.8 25.7L0 22.8a.4.4 0 0 1 .1-.3s10 .1 12.3 0 2.9.4 3.9 2.2c2.1 3.9 4.5 7.7 6.6 11.7L17.5 33c-1.8 3.2-3.5 6.4-5.4 9.7h16.8v16.2H16a7.1 7.1 0 0 1-6.6-4.2C6.7 49.3 4 43.8 1.1 38.4a5.9 5.9 0 0 1 .2-6.5c1.2-2 2.2-4 3.5-6.2z"/></symbol><symbol id="turtle" viewBox="0 0 64 64"><path d="M62.7 34.3a30.7 30.7 0 0 0-8.2-10.2 5.4 5.4 0 0 1-1.9-3 9.1 9.1 0 0 0 7.8-8.8 7.9 7.9 0 0 0-6.7-8.2 9.1 9.1 0 0 0-6.5 1.6 7.8 7.8 0 0 0-3.9 5.9l-1.2-.4-.4-.2a2.8 2.8 0 0 1-1.1-.5l-2.1-2.2c-1.1-1.1-2.3-2.3-3.6-3.4a21.2 21.2 0 0 0-6.4-4c-5.4-2.2-10.3.1-14 2.3a3.3 3.3 0 0 0-1.3 4 6.7 6.7 0 0 0 2.4 2.6 8.8 8.8 0 0 0 2.7.6h.6a16.7 16.7 0 0 1 7.8 3 27 27 0 0 0-13.1 16l-.5.2-2.9.8A36.3 36.3 0 0 0 4.8 32a10 10 0 0 0-4 3.2A3 3 0 0 0 .1 38a3.2 3.2 0 0 0 2.1 2.3 7.7 7.7 0 0 0 3.1.9c2.3.2 4.7.2 7.2.2h.6c.6 0 .6.1.8.5 1.3 3.7 3.5 6.2 6.3 7.3s2.3 1.9 2.2 4.4a25.8 25.8 0 0 0 1 7.7 3.5 3.5 0 0 0 2.2 2.6h.9A4.2 4.2 0 0 0 29 63a9.7 9.7 0 0 0 2.9-4 38.1 38.1 0 0 0 2-7.5c.2-.7.2-.7.7-.8A23.8 23.8 0 0 0 45.7 44a52.1 52.1 0 0 0 4.1-5.2l.9-1.2a16.2 16.2 0 0 1 2.6 5.9c.2 1.5.5 2.9.7 4.4a3.6 3.6 0 0 0 3 3 3.4 3.4 0 0 0 4.1-2 54.6 54.6 0 0 0 2.6-7.2 9.7 9.7 0 0 0-1-7.4zM52.4 17.2a5.5 5.5 0 0 1-3.2-1.9 5.5 5.5 0 0 1-1.9-3.3 3.7 3.7 0 0 1 1.2-2.3 6.3 6.3 0 0 1 4-1.7 3.8 3.8 0 0 1 3.8 4 6.1 6.1 0 0 1-1.8 4.1 3.3 3.3 0 0 1-2.1 1.1v.5zM29.9 51.5c-.1 2.7-1.5 6.3-3 7.8a25.3 25.3 0 0 1-.5-7.8zm-7.8-19.6l-4.9 1.5h-.3a20.5 20.5 0 0 1 5.1-11h.1c.6.8 1.3 1.5 1.9 2.2v.3c-.6 2.2-1.2 4.5-1.8 6.6a.3.3 0 0 1-.1.2zm16.2 4a1 1 0 0 1-.1.3l-5.5 1.6-1.4.3-.4-.2-.7-.7-3.8-3.9a1.4 1.4 0 0 1-.2-.7c.5-2 1-4.1 1.7-6.4l.3-.3 6.5-1.8.5.2c1.6 1.5 3.2 3.1 4.7 4.7s.1.4.1.5c-.5 2.2-1.1 4.4-1.7 6.4zm-2.8-20.8c-.5 1.7-1 3.4-1.6 5h-.3l-6.3 1.7h-.4l-2.3-2h-.1a20.8 20.8 0 0 1 11.1-5.1zM17 37.6l2.4-.7h.1A29.7 29.7 0 0 1 23 36h.5c1.6 1.5 3.1 3.1 4.6 4.7.1 0 .1.1.2.2l-.4 1.4c-.5 1.7-1 3.3-1.6 4.9h-.1a11 11 0 0 1-9.3-9.5v-.2zm13.6 9.6c.4-1.1.7-2.2 1-3.3a2.4 2.4 0 0 1 2.4-2.4l3-.7 2-.5c.2 0 .4 0 .4.1s1.4 1.2 2.1 1.8h.1a20.9 20.9 0 0 1-11 5.1zm18.6-22.9zm0 0l-.6.2-3 .9-2.3.7a.6.6 0 0 1-.6-.1c-1.6-1.4-3.1-3-4.5-4.5a1.4 1.4 0 0 1-.2-.7c.5-2 1.2-4.1 1.8-5.8h.1a11 11 0 0 1 9.2 8.6c.2.5.1.7.1.7zm-7 12.7c.5-2.1 1.1-4.2 1.7-6.4l.2-.4 4.8-1.5.4-.2c-.4 3.9-2 7.4-5 11.1h-.1l-1.9-2.1a2.3 2.3 0 0 1-.1-.5zm-6.7-26.3l-4.2.9-.9-.5-.6-.4c-2.6-1.6-5.3-3.3-8.6-3.9h-.7l-3.1-.6c5.7-2.9 9.1-2.8 13.2.5l5 4.2v.4zM22.4 22.3zm30.3 9.6c.3-1.1.5-2.3.7-3.4a24 24 0 0 1 6.1 8.6c1.2 3.4-.1 6.6-1.6 9.4a19.1 19.1 0 0 1-.6-3.3l-.2-.8c-.6-3.3-2.3-6-4-8.6a2 2 0 0 1-.4-1.9zm-40 2v3.7h-1.3l-6.5-.4-.4-.2c.2-.2.3-.4.4-.4a17.6 17.6 0 0 1 7.8-2.7z"/></symbol><symbol id="logs" viewBox="0 0 64 64"><path d="M41 0v3.9h7.8a4.5 4.5 0 0 1 4.5 3.6 10.9 10.9 0 0 1 .1 1.8V11h-4.1V8.6c0-.5-.1-.6-.6-.6H41v2.1H17V8H9.4c-.7 0-.7.1-.7.7v50.5c0 .6 0 .7.7.7h39.2c.6 0 .7-.1.7-.7V44h4.1v15.4a4.5 4.5 0 0 1-3.8 4.6H8.4a4.5 4.5 0 0 1-3.7-3.2c0-.2-.1-.4-.1-.7V7.9a4.5 4.5 0 0 1 4.6-4c2.5.1 4.9 0 7.4 0h.4V0z"/><path d="M59.4 16.9l-3.3 7.6c-3.5 8.1-7.1 16.1-10.7 24.2a3.1 3.1 0 0 1-1.1 1.4l-6.5 5.5-.3.3v-9.2a2 2 0 0 1 .2-1.3l13.8-31.2a2 2 0 0 1 2.6-1.3h.3a34.9 34.9 0 0 0 3.4 1.5 2.4 2.4 0 0 1 1.6 1.8zm-31.9 5H15.7a2.7 2.7 0 0 1-2.7-1.8 2.7 2.7 0 0 1 1.6-3.5h.9a28.1 28.1 0 0 1 2.9 0h20.9a2.7 2.7 0 0 1 2.8 2.4 2.8 2.8 0 0 1-2.5 2.9H27.5zm-1.2 5.5h10.8a2.6 2.6 0 0 1 2.5 2.1 2.7 2.7 0 0 1-1.9 3.3h-.6c-1.7.1-3.4 0-5.1 0H15.6a2.8 2.8 0 0 1-2.8-2.7 2.8 2.8 0 0 1 .7-1.7 2.5 2.5 0 0 1 2.1-1zm-3.3 11h7.1a2.7 2.7 0 0 1 2.6 4 2.7 2.7 0 0 1-2.6 1.4H15.7a2.8 2.8 0 0 1-2.9-2.6 2.7 2.7 0 0 1 2.6-2.8.2.2 0 0 1 .3 0zm-.5 16.3h-6.8a2.7 2.7 0 1 1-.3-5.4h14a2.7 2.7 0 0 1 .8 5.3h-7.7z"/></symbol></svg>

<svg xmlns="http://www.w3.org/2000/svg"><symbol id="logs" viewBox="0 0 308.6 360"><path d="M205 0v20.4a11.6 11.6 0 0 0 .1 1.7h44.1a25 25 0 0 1 25.1 20.4 52.1 52.1 0 0 1 .6 9.7c.1 3.2 0 6.4 0 9.8h-23.2V48.4c0-2.8-.5-3.3-3.3-3.3h-43.5v11.7H70V45.1H27.1c-3.7 0-4.1.3-4.1 4v284c0 3.5.5 4 4 4h220.6c3.7 0 4.1-.4 4.1-4.1v-85.7h23.1V334a25.3 25.3 0 0 1-21.7 25.7l-.7.3h-230l-.8-.3A25.1 25.1 0 0 1 1 341.6c-.4-1.3-.7-2.7-1-4V44.4l.3-.6a25.6 25.6 0 0 1 26-21.8c13.8.2 27.6 0 41.3 0h2.2V0z"/><path d="M308.6 95.1c-6.2 14.2-12.3 28.4-18.5 42.5q-30.3 68.3-60.5 136.6a20.9 20.9 0 0 1-6.1 7.7L187 313l-1.8 1.5v-2.3l.3-43.7a37.7 37.7 0 0 0-.4-5.8 12.3 12.3 0 0 1 1.3-7.3l77.8-175.8a11.6 11.6 0 0 1 14.7-6.9l1.3.6c6.4 2.8 12.7 5.8 19.1 8.4a13.8 13.8 0 0 1 9.3 9.7zm-179.8 28c-22 0-44-.1-66 .1a15.7 15.7 0 0 1-15.3-10.1 15.2 15.2 0 0 1 9.1-19.6 14.3 14.3 0 0 1 5-.9h133.6a15.3 15.3 0 0 1 2 30.5h-10.3c-19.4 0-38.8.1-58.1 0zm-6.5 31.2h60.5a14.9 14.9 0 0 1 14.5 11.6 15.2 15.2 0 0 1-11.2 18.4 12.4 12.4 0 0 1-3.3.4c-9.5.1-19 0-28.5 0H61.9a15.3 15.3 0 0 1-15.4-15.2 15.5 15.5 0 0 1 3.5-9.8 14.7 14.7 0 0 1 12.2-5.5zm-18.9 61.5h40.2a15.1 15.1 0 0 1 13.9 7.1 14.7 14.7 0 0 1 .5 15.5 15.4 15.4 0 0 1-14.3 8H62.8a15.3 15.3 0 0 1-1.8-30.6h42.4zm-2.6 92.1c-12.8 0-25.6.1-38.4 0a15.3 15.3 0 1 1-1.2-30.5h78.7a15.3 15.3 0 0 1 15.2 15.3 15.1 15.1 0 0 1-10.9 14.5 23 23 0 0 1-5.8.7c-12.6.1-25.1 0-37.6 0z"/></symbol><symbol id="recycle" viewBox="0 0 360 360"><path d="M359.8 208.7q-31.5 52.5-62.8 105a28.6 28.6 0 0 1-26.5 14.8c-13.5-.2-26.8 0-41.6 0v31l-2.1.5c-3-5.3-28.8-51.3-38.3-69.2a11.4 11.4 0 0 1-1.1-8.7c12.9-25.3 26.1-50.4 40.2-77.5v38.1H288l-46.9-84.8 76.3-45.7 42.6 80.2c-.2 5.3-.2 10.8-.2 16.3zM131.9 0c1.1 0 73.7-.2 101.9 0 12.1.2 21.3 4.8 27.3 16.3s13.5 26.6 20.7 39.2l28.9-16.9c-3.8 7.4-28.3 54.1-38.1 71.8a11.7 11.7 0 0 1-7.3 5.8c-26.7 1.6-82.3 3.4-83.3 2.9l30.7-18.5c-10-17.8-20.1-35.4-30.7-54.3-15.9 29.6-31.2 57.9-46.6 86.8L58.5 89.2c5.1-9.5 26.8-48.8 31.9-60a54.2 54.2 0 0 1 11.2-16.9A42.8 42.8 0 0 1 131.9 0zm-105 144.6C17.3 138.8 8.7 133.4 0 128a8 8 0 0 0 .3-1.5s56.8.7 69.5-.1c10.5-.9 16.5 2.6 21.7 12.3 12 22.2 25.5 43.4 37.6 66.2-10.1-6.2-20.1-12.3-30.6-19.1l-30.3 54.3h94.4v91s-52.9.2-72.8 0a39.1 39.1 0 0 1-37-23.5C37.5 277 22.3 246.4 6.4 216.2c-6.7-12.8-7.2-24.5.8-36.8s12.7-22.5 19.7-34.8z"/></symbol><symbol id="star" viewBox="0 0 330.4 329.4"><path d="M177.7 7.9l43.1 92 97.9 14.9a13.8 13.8 0 0 1 7.8 23.3l-71.3 73 16.7 102.2a13.8 13.8 0 0 1-20.3 14.3l-86.4-47.7-86.4 47.7a13.8 13.8 0 0 1-20.3-14.3l16.7-102.2-71.3-73a13.8 13.8 0 0 1 7.8-23.3l97.9-14.9 43.1-92a13.9 13.9 0 0 1 25 0z"/></symbol><symbol id="logo" viewBox="0 0 86.4 86.4"><path d="M28.6 0l6.6 2.6 9 3.9 1.2.7c.8.6 1 1.7.4 2.6-.2.4-.6.8-.9 1.1l-12 10c-1.8 1.5-3.4.8-3.8-1.6s-.4-3-.7-4.5c0-.2 0-.4-.1-.5-3.3 1.4-6.3 3.4-8.9 5.8-6.1 5.3-10 12.6-10.8 20.7-.2 1.6-.3 3.2-.3 4.9-.1.3-.1.7-.3 1.1-.8 2-2.9 3.3-5.1 3-1.2-.3-2.2-1.2-2.6-2.4-.1-.2-.2-.3-.1-.5-.1-.8-.2-1.2-.2-1.7 0-.9.1-2 .1-3 1-15.7 10.7-29.5 25.1-35.8l1.9-.8c-.2-.9-.4-1.9-.5-2.8-.2-1 .2-2.1 1.1-2.7l.9-.1zm57.8 55.4c-.2.9-.7 1.7-1.5 2.2l-11.5 9-1.1.7c-.9.5-1.9.1-2.4-.7 0 0 0-.1-.1-.1s-.1-.1-.1-.1l-.4-1.2L67 50c-.1-.4-.2-.8-.1-1.2 0-1 .7-1.8 1.7-1.8.2 0 .4 0 .6.1l1.8.7 2.8 1.1h.1c.1-.9.1-1.9.3-2.8.5-12.1-5.8-23.5-16.2-29.7-1.3-.8-2.1-2.2-2.2-3.8.1-1.7 1.2-3.1 2.8-3.6 1.5-.4 3-.1 4.3.7 10.7 6.8 17.8 18.1 19.2 30.8.4 3.9.3 7.9-.4 11.7l2.7 1.2c.9.2 1.6.8 2 1.6v.4zm-64 16.7l2.4 1.5c5.3 3.2 11.4 4.7 17.5 4.5 5.3-.1 10.4-1.6 15-4.3 1.8-1.1 4.1-.6 5.2 1.2.4.6.6 1.3.6 1.9.1 1.4-.4 2.7-1.3 3.6-.7.6-1.4 1.1-2.2 1.5-4.7 2.4-9.9 3.9-15.3 4.3-7.6.6-15.2-.9-21.9-4.5-2.2-1.2-4.4-2.5-6.3-4-.1-.2-.3-.3-.5-.2-.1 0-.1.1-.2.1l-2.8 2.4-1.4.8c-.7.4-1.6 0-2-.7v-.1c-.2-.5-.4-1.1-.5-1.6-.5-4.5-1-9.1-1.7-13.7 0-.7-.1-1.4-.1-2-.2-1.2.7-2.3 1.8-2.4.4-.1.8 0 1.1.1l5.5 2.2 8.5 3.2 1.2.7c.8.5 1.1 1.6.5 2.4 0 .1 0 .1-.1.3-.3.4-.7.8-1.1 1.1l-1.9 1.7zM56 41.3c-.1-.9-.1-1.8-.3-2.7-.1-.9-.1-.1-.1-.3-.2-1.9-.7-3.7-1.4-5.5-.9-2.7-2.4-5.3-4.3-7.4l-.8-.7h-.5c-.4.2-.7.5-.8.9-1.2 3-3.2 5.5-5.8 7.4l-3.5 2.3-3.9 2.8c-2.1 1.7-3.4 4.2-3.6 6.9-.2 2.6 0 5.3.7 7.8l.3 1.5c-2.8 1.1-5.7 1.6-8.6 1.6.3 1.4.4 2.9.5 4.3l2.6-.4c3.1-.6 6-1.7 8.8-3.1 3.9-1.9 7.3-4.8 9.7-8.4 2.5-3.8 4.2-8 5.1-12.4v-.3c.4 5-.8 10-3.4 14.3-2.6 4.2-6.4 7.6-10.9 9.7h.1c3.1.7 6.2.7 9.3 0 3.7-.9 6.8-3.4 8.6-6.8 1.6-3.2 2.4-6.8 2.3-10.4-.1-.2-.1-.6-.1-1.1z"/></symbol></svg>

