<svg xmlns="http://www.w3.org/2000/svg"><symbol id="logo" viewBox="0 0 64 64"><path d="M21.2 0l4.9 1.9 6.7 2.9.9.5a1.4 1.4 0 0 1 .3 1.9 2.7 2.7 0 0 1-.7.8l-8.9 7.4c-1.3 1.1-2.5.6-2.8-1.2s-.3-2.2-.5-3.3a.6.6 0 0 0-.1-.4 24.2 24.2 0 0 0-6.6 4.3 23.5 23.5 0 0 0-8 15.3 21.7 21.7 0 0 0-.2 3.6c-.1.2-.1.5-.2.8a3.6 3.6 0 0 1-3.8 2.2 2.5 2.5 0 0 1-1.9-1.8.6.6 0 0 1-.1-.4 3 3 0 0 1-.2-1c0-.7.1-1.5.1-2.2A31 31 0 0 1 18.7 4.8l1.4-.6a15.5 15.5 0 0 1-.4-2.1 2 2 0 0 1 .8-2zM64 41a2.6 2.6 0 0 1-1.1 1.6l-8.5 6.7-.8.5a1.3 1.3 0 0 1-1.8-.6.1.1 0 0 1-.1-.1l-.3-.9L49.6 37a2.8 2.8 0 0 1-.1-.9 1.3 1.3 0 0 1 1.7-1.3l1.3.5 2.1.8h.1c.1-.7.1-1.4.2-2.1a24.5 24.5 0 0 0-12-22 3.3 3.3 0 0 1-1.6-2.8 3 3 0 0 1 2.1-2.7 4 4 0 0 1 3.2.5 30.9 30.9 0 0 1 14.2 22.8 31.6 31.6 0 0 1-.3 8.7l2 .9a2.3 2.3 0 0 1 1.5 1.2zM16.6 53.4l1.8 1.1a23.6 23.6 0 0 0 13 3.3 23 23 0 0 0 11.1-3.2 2.8 2.8 0 0 1 4.3 2.3 3.4 3.4 0 0 1-1 2.7 9.1 9.1 0 0 1-1.6 1.1 29.9 29.9 0 0 1-11.3 3.2 29.4 29.4 0 0 1-16.2-3.3 31.5 31.5 0 0 1-4.7-3 .3.3 0 0 0-.5-.1l-2.1 1.8-1 .6a1.1 1.1 0 0 1-1.5-.6 5.6 5.6 0 0 1-.4-1.2c-.4-3.3-.8-6.7-1.3-10.1 0-.5-.1-1-.1-1.5a1.6 1.6 0 0 1 2.2-1.7l4.1 1.6 6.3 2.4.9.5a1.3 1.3 0 0 1 .4 1.8c0 .1 0 .1-.1.2a6 6 0 0 1-.8.8zm24.9-22.8c-.1-.7-.1-1.3-.2-2s-.1-.1-.1-.2a18.9 18.9 0 0 0-1-4.1 15.9 15.9 0 0 0-3.2-5.5l-.6-.5H36a1.1 1.1 0 0 0-.6.7 12.9 12.9 0 0 1-4.3 5.5l-2.6 1.7-2.9 2.1a7.2 7.2 0 0 0-2.7 5.1 18.7 18.7 0 0 0 .5 5.8 5.2 5.2 0 0 1 .2 1.1 17.3 17.3 0 0 1-6.4 1.2 31.1 31.1 0 0 1 .4 3.2l1.9-.3a24.1 24.1 0 0 0 6.5-2.3 18 18 0 0 0 7.2-6.2 26.7 26.7 0 0 0 3.8-9.2v-.2a17.9 17.9 0 0 1-2.5 10.6 19.4 19.4 0 0 1-8.1 7.2h.1a16.1 16.1 0 0 0 6.9 0 10.1 10.1 0 0 0 6.4-5 15.8 15.8 0 0 0 1.7-7.7 4.5 4.5 0 0 1 0-1z"/></symbol><symbol id="star" viewBox="0 0 64 64"><path d="M34.4 1.5l8.4 17.9 19 2.9a2.6 2.6 0 0 1 1.5 4.5L49.5 41l3.2 19.9a2.7 2.7 0 0 1-3.9 2.8L32 54.4l-16.8 9.3a2.7 2.7 0 0 1-3.9-2.8L14.5 41 .7 26.8a2.6 2.6 0 0 1 1.5-4.5l19-2.9 8.4-17.9a2.7 2.7 0 0 1 4.8 0z"/></symbol><symbol id="logs" viewBox="0 0 64 64"><path d="M41 0v3.9h7.8a4.5 4.5 0 0 1 4.5 3.6 10.9 10.9 0 0 1 .1 1.8V11h-4.1V8.6c0-.5-.1-.6-.6-.6H41v2.1H17V8H9.4c-.7 0-.7.1-.7.7v50.5c0 .6 0 .7.7.7h39.2c.6 0 .7-.1.7-.7V44h4.1v15.4a4.5 4.5 0 0 1-3.8 4.6H8.4a4.5 4.5 0 0 1-3.7-3.2c0-.2-.1-.4-.1-.7V7.9a4.5 4.5 0 0 1 4.6-4c2.5.1 4.9 0 7.4 0h.4V0z"/><path d="M59.4 16.9l-3.3 7.6c-3.5 8.1-7.1 16.1-10.7 24.2a3.1 3.1 0 0 1-1.1 1.4l-6.5 5.5-.3.3v-9.2a2 2 0 0 1 .2-1.3l13.8-31.2a2 2 0 0 1 2.6-1.3h.3a34.9 34.9 0 0 0 3.4 1.5 2.4 2.4 0 0 1 1.6 1.8zm-31.9 5H15.7a2.7 2.7 0 0 1-2.7-1.8 2.7 2.7 0 0 1 1.6-3.5h.9a28.1 28.1 0 0 1 2.9 0h20.9a2.7 2.7 0 0 1 2.8 2.4 2.8 2.8 0 0 1-2.5 2.9H27.5zm-1.2 5.5h10.8a2.6 2.6 0 0 1 2.5 2.1 2.7 2.7 0 0 1-1.9 3.3h-.6c-1.7.1-3.4 0-5.1 0H15.6a2.8 2.8 0 0 1-2.8-2.7 2.8 2.8 0 0 1 .7-1.7 2.5 2.5 0 0 1 2.1-1zm-3.3 11h7.1a2.7 2.7 0 0 1 2.6 4 2.7 2.7 0 0 1-2.6 1.4H15.7a2.8 2.8 0 0 1-2.9-2.6 2.7 2.7 0 0 1 2.6-2.8.2.2 0 0 1 .3 0zm-.5 16.3h-6.8a2.7 2.7 0 1 1-.3-5.4h14a2.7 2.7 0 0 1 .8 5.3h-7.7z"/></symbol><symbol id="recycle" viewBox="0 0 64 64"><path d="M64 37.1c-3.8 6.2-7.5 12.4-11.2 18.7a5.2 5.2 0 0 1-4.7 2.6h-7.4v5.5h-.4c-.5-.9-5.1-9.1-6.8-12.3a2 2 0 0 1-.2-1.5c2.3-4.5 4.6-9 7.2-13.8V43h10.7l-8.3-15 13.5-8L64 34.2zM23.4 0h18.2a5.1 5.1 0 0 1 4.8 2.9c1.2 2.2 2.4 4.7 3.7 7l5.1-3c-.6 1.3-5 9.6-6.7 12.7a2.3 2.3 0 0 1-1.3 1.1c-4.8.3-14.7.6-14.8.5l5.4-3.3c-1.8-3.2-3.6-6.3-5.4-9.7-2.9 5.3-5.6 10.3-8.3 15.5l-13.7-7.8c.9-1.7 4.8-8.7 5.7-10.7a8.3 8.3 0 0 1 2-3A7.5 7.5 0 0 1 23.4 0zM4.8 25.7L0 22.8a.4.4 0 0 1 .1-.3s10 .1 12.3 0 2.9.4 3.9 2.2c2.1 3.9 4.5 7.7 6.6 11.7L17.5 33c-1.8 3.2-3.5 6.4-5.4 9.7h16.8v16.2H16a7.1 7.1 0 0 1-6.6-4.2C6.7 49.3 4 43.8 1.1 38.4a5.9 5.9 0 0 1 .2-6.5c1.2-2 2.2-4 3.5-6.2z"/></symbol></svg>