<svg xmlns="http://www.w3.org/2000/svg"><symbol id="logs" viewBox="0 0 308.6 360"><path d="M205 0v20.4a11.6 11.6 0 0 0 .1 1.7h44.1a25 25 0 0 1 25.1 20.4 52.1 52.1 0 0 1 .6 9.7c.1 3.2 0 6.4 0 9.8h-23.2V48.4c0-2.8-.5-3.3-3.3-3.3h-43.5v11.7H70V45.1H27.1c-3.7 0-4.1.3-4.1 4v284c0 3.5.5 4 4 4h220.6c3.7 0 4.1-.4 4.1-4.1v-85.7h23.1V334a25.3 25.3 0 0 1-21.7 25.7l-.7.3h-230l-.8-.3A25.1 25.1 0 0 1 1 341.6c-.4-1.3-.7-2.7-1-4V44.4l.3-.6a25.6 25.6 0 0 1 26-21.8c13.8.2 27.6 0 41.3 0h2.2V0z"/><path d="M308.6 95.1c-6.2 14.2-12.3 28.4-18.5 42.5q-30.3 68.3-60.5 136.6a20.9 20.9 0 0 1-6.1 7.7L187 313l-1.8 1.5v-2.3l.3-43.7a37.7 37.7 0 0 0-.4-5.8 12.3 12.3 0 0 1 1.3-7.3l77.8-175.8a11.6 11.6 0 0 1 14.7-6.9l1.3.6c6.4 2.8 12.7 5.8 19.1 8.4a13.8 13.8 0 0 1 9.3 9.7zm-179.8 28c-22 0-44-.1-66 .1a15.7 15.7 0 0 1-15.3-10.1 15.2 15.2 0 0 1 9.1-19.6 14.3 14.3 0 0 1 5-.9h133.6a15.3 15.3 0 0 1 2 30.5h-10.3c-19.4 0-38.8.1-58.1 0zm-6.5 31.2h60.5a14.9 14.9 0 0 1 14.5 11.6 15.2 15.2 0 0 1-11.2 18.4 12.4 12.4 0 0 1-3.3.4c-9.5.1-19 0-28.5 0H61.9a15.3 15.3 0 0 1-15.4-15.2 15.5 15.5 0 0 1 3.5-9.8 14.7 14.7 0 0 1 12.2-5.5zm-18.9 61.5h40.2a15.1 15.1 0 0 1 13.9 7.1 14.7 14.7 0 0 1 .5 15.5 15.4 15.4 0 0 1-14.3 8H62.8a15.3 15.3 0 0 1-1.8-30.6h42.4zm-2.6 92.1c-12.8 0-25.6.1-38.4 0a15.3 15.3 0 1 1-1.2-30.5h78.7a15.3 15.3 0 0 1 15.2 15.3 15.1 15.1 0 0 1-10.9 14.5 23 23 0 0 1-5.8.7c-12.6.1-25.1 0-37.6 0z"/></symbol><symbol id="recycle" viewBox="0 0 360 360"><path d="M359.8 208.7q-31.5 52.5-62.8 105a28.6 28.6 0 0 1-26.5 14.8c-13.5-.2-26.8 0-41.6 0v31l-2.1.5c-3-5.3-28.8-51.3-38.3-69.2a11.4 11.4 0 0 1-1.1-8.7c12.9-25.3 26.1-50.4 40.2-77.5v38.1H288l-46.9-84.8 76.3-45.7 42.6 80.2c-.2 5.3-.2 10.8-.2 16.3zM131.9 0c1.1 0 73.7-.2 101.9 0 12.1.2 21.3 4.8 27.3 16.3s13.5 26.6 20.7 39.2l28.9-16.9c-3.8 7.4-28.3 54.1-38.1 71.8a11.7 11.7 0 0 1-7.3 5.8c-26.7 1.6-82.3 3.4-83.3 2.9l30.7-18.5c-10-17.8-20.1-35.4-30.7-54.3-15.9 29.6-31.2 57.9-46.6 86.8L58.5 89.2c5.1-9.5 26.8-48.8 31.9-60a54.2 54.2 0 0 1 11.2-16.9A42.8 42.8 0 0 1 131.9 0zm-105 144.6C17.3 138.8 8.7 133.4 0 128a8 8 0 0 0 .3-1.5s56.8.7 69.5-.1c10.5-.9 16.5 2.6 21.7 12.3 12 22.2 25.5 43.4 37.6 66.2-10.1-6.2-20.1-12.3-30.6-19.1l-30.3 54.3h94.4v91s-52.9.2-72.8 0a39.1 39.1 0 0 1-37-23.5C37.5 277 22.3 246.4 6.4 216.2c-6.7-12.8-7.2-24.5.8-36.8s12.7-22.5 19.7-34.8z"/></symbol><symbol id="star" viewBox="0 0 330.4 329.4"><path d="M177.7 7.9l43.1 92 97.9 14.9a13.8 13.8 0 0 1 7.8 23.3l-71.3 73 16.7 102.2a13.8 13.8 0 0 1-20.3 14.3l-86.4-47.7-86.4 47.7a13.8 13.8 0 0 1-20.3-14.3l16.7-102.2-71.3-73a13.8 13.8 0 0 1 7.8-23.3l97.9-14.9 43.1-92a13.9 13.9 0 0 1 25 0z"/></symbol><symbol id="logo" viewBox="0 0 86.4 86.4"><path d="M28.6 0l6.6 2.6 9 3.9 1.2.7c.8.6 1 1.7.4 2.6-.2.4-.6.8-.9 1.1l-12 10c-1.8 1.5-3.4.8-3.8-1.6s-.4-3-.7-4.5c0-.2 0-.4-.1-.5-3.3 1.4-6.3 3.4-8.9 5.8-6.1 5.3-10 12.6-10.8 20.7-.2 1.6-.3 3.2-.3 4.9-.1.3-.1.7-.3 1.1-.8 2-2.9 3.3-5.1 3-1.2-.3-2.2-1.2-2.6-2.4-.1-.2-.2-.3-.1-.5-.1-.8-.2-1.2-.2-1.7 0-.9.1-2 .1-3 1-15.7 10.7-29.5 25.1-35.8l1.9-.8c-.2-.9-.4-1.9-.5-2.8-.2-1 .2-2.1 1.1-2.7l.9-.1zm57.8 55.4c-.2.9-.7 1.7-1.5 2.2l-11.5 9-1.1.7c-.9.5-1.9.1-2.4-.7 0 0 0-.1-.1-.1s-.1-.1-.1-.1l-.4-1.2L67 50c-.1-.4-.2-.8-.1-1.2 0-1 .7-1.8 1.7-1.8.2 0 .4 0 .6.1l1.8.7 2.8 1.1h.1c.1-.9.1-1.9.3-2.8.5-12.1-5.8-23.5-16.2-29.7-1.3-.8-2.1-2.2-2.2-3.8.1-1.7 1.2-3.1 2.8-3.6 1.5-.4 3-.1 4.3.7 10.7 6.8 17.8 18.1 19.2 30.8.4 3.9.3 7.9-.4 11.7l2.7 1.2c.9.2 1.6.8 2 1.6v.4zm-64 16.7l2.4 1.5c5.3 3.2 11.4 4.7 17.5 4.5 5.3-.1 10.4-1.6 15-4.3 1.8-1.1 4.1-.6 5.2 1.2.4.6.6 1.3.6 1.9.1 1.4-.4 2.7-1.3 3.6-.7.6-1.4 1.1-2.2 1.5-4.7 2.4-9.9 3.9-15.3 4.3-7.6.6-15.2-.9-21.9-4.5-2.2-1.2-4.4-2.5-6.3-4-.1-.2-.3-.3-.5-.2-.1 0-.1.1-.2.1l-2.8 2.4-1.4.8c-.7.4-1.6 0-2-.7v-.1c-.2-.5-.4-1.1-.5-1.6-.5-4.5-1-9.1-1.7-13.7 0-.7-.1-1.4-.1-2-.2-1.2.7-2.3 1.8-2.4.4-.1.8 0 1.1.1l5.5 2.2 8.5 3.2 1.2.7c.8.5 1.1 1.6.5 2.4 0 .1 0 .1-.1.3-.3.4-.7.8-1.1 1.1l-1.9 1.7zM56 41.3c-.1-.9-.1-1.8-.3-2.7-.1-.9-.1-.1-.1-.3-.2-1.9-.7-3.7-1.4-5.5-.9-2.7-2.4-5.3-4.3-7.4l-.8-.7h-.5c-.4.2-.7.5-.8.9-1.2 3-3.2 5.5-5.8 7.4l-3.5 2.3-3.9 2.8c-2.1 1.7-3.4 4.2-3.6 6.9-.2 2.6 0 5.3.7 7.8l.3 1.5c-2.8 1.1-5.7 1.6-8.6 1.6.3 1.4.4 2.9.5 4.3l2.6-.4c3.1-.6 6-1.7 8.8-3.1 3.9-1.9 7.3-4.8 9.7-8.4 2.5-3.8 4.2-8 5.1-12.4v-.3c.4 5-.8 10-3.4 14.3-2.6 4.2-6.4 7.6-10.9 9.7h.1c3.1.7 6.2.7 9.3 0 3.7-.9 6.8-3.4 8.6-6.8 1.6-3.2 2.4-6.8 2.3-10.4-.1-.2-.1-.6-.1-1.1z"/></symbol></svg>