<svg xmlns="http://www.w3.org/2000/svg" viewBox="0 0 86.4 86.4" width="86.4" height="86.4"><path d="M28.6 0l6.6 2.6 9 3.9 1.2.7c.8.6 1 1.7.4 2.6-.2.4-.6.8-.9 1.1l-12 10c-1.8 1.5-3.4.8-3.8-1.6s-.4-3-.7-4.5c0-.2 0-.4-.1-.5-3.3 1.4-6.3 3.4-8.9 5.8-6.1 5.3-10 12.6-10.8 20.7-.2 1.6-.3 3.2-.3 4.9-.1.3-.1.7-.3 1.1-.8 2-2.9 3.3-5.1 3-1.2-.3-2.2-1.2-2.6-2.4-.1-.2-.2-.3-.1-.5-.1-.8-.2-1.2-.2-1.7 0-.9.1-2 .1-3 1-15.7 10.7-29.5 25.1-35.8l1.9-.8c-.2-.9-.4-1.9-.5-2.8-.2-1 .2-2.1 1.1-2.7l.9-.1zm57.8 55.4c-.2.9-.7 1.7-1.5 2.2l-11.5 9-1.1.7c-.9.5-1.9.1-2.4-.7 0 0 0-.1-.1-.1s-.1-.1-.1-.1l-.4-1.2L67 50c-.1-.4-.2-.8-.1-1.2 0-1 .7-1.8 1.7-1.8.2 0 .4 0 .6.1l1.8.7 2.8 1.1h.1c.1-.9.1-1.9.3-2.8.5-12.1-5.8-23.5-16.2-29.7-1.3-.8-2.1-2.2-2.2-3.8.1-1.7 1.2-3.1 2.8-3.6 1.5-.4 3-.1 4.3.7 10.7 6.8 17.8 18.1 19.2 30.8.4 3.9.3 7.9-.4 11.7l2.7 1.2c.9.2 1.6.8 2 1.6v.4zm-64 16.7l2.4 1.5c5.3 3.2 11.4 4.7 17.5 4.5 5.3-.1 10.4-1.6 15-4.3 1.8-1.1 4.1-.6 5.2 1.2.4.6.6 1.3.6 1.9.1 1.4-.4 2.7-1.3 3.6-.7.6-1.4 1.1-2.2 1.5-4.7 2.4-9.9 3.9-15.3 4.3-7.6.6-15.2-.9-21.9-4.5-2.2-1.2-4.4-2.5-6.3-4-.1-.2-.3-.3-.5-.2-.1 0-.1.1-.2.1l-2.8 2.4-1.4.8c-.7.4-1.6 0-2-.7v-.1c-.2-.5-.4-1.1-.5-1.6-.5-4.5-1-9.1-1.7-13.7 0-.7-.1-1.4-.1-2-.2-1.2.7-2.3 1.8-2.4.4-.1.8 0 1.1.1l5.5 2.2 8.5 3.2 1.2.7c.8.5 1.1 1.6.5 2.4 0 .1 0 .1-.1.3-.3.4-.7.8-1.1 1.1l-1.9 1.7zM56 41.3c-.1-.9-.1-1.8-.3-2.7-.1-.9-.1-.1-.1-.3-.2-1.9-.7-3.7-1.4-5.5-.9-2.7-2.4-5.3-4.3-7.4l-.8-.7h-.5c-.4.2-.7.5-.8.9-1.2 3-3.2 5.5-5.8 7.4l-3.5 2.3-3.9 2.8c-2.1 1.7-3.4 4.2-3.6 6.9-.2 2.6 0 5.3.7 7.8l.3 1.5c-2.8 1.1-5.7 1.6-8.6 1.6.3 1.4.4 2.9.5 4.3l2.6-.4c3.1-.6 6-1.7 8.8-3.1 3.9-1.9 7.3-4.8 9.7-8.4 2.5-3.8 4.2-8 5.1-12.4v-.3c.4 5-.8 10-3.4 14.3-2.6 4.2-6.4 7.6-10.9 9.7h.1c3.1.7 6.2.7 9.3 0 3.7-.9 6.8-3.4 8.6-6.8 1.6-3.2 2.4-6.8 2.3-10.4-.1-.2-.1-.6-.1-1.1z"/></svg>