<svg xmlns="http://www.w3.org/2000/svg" width="86.4" height="86.4" viewBox="0 0 64 64"><path d="M21.2 0l4.9 1.9 6.7 2.9.9.5a1.4 1.4 0 0 1 .3 1.9 2.7 2.7 0 0 1-.7.8l-8.9 7.4c-1.3 1.1-2.5.6-2.8-1.2s-.3-2.2-.5-3.3a.6.6 0 0 0-.1-.4 24.2 24.2 0 0 0-6.6 4.3 23.5 23.5 0 0 0-8 15.3 21.7 21.7 0 0 0-.2 3.6c-.1.2-.1.5-.2.8a3.6 3.6 0 0 1-3.8 2.2 2.5 2.5 0 0 1-1.9-1.8.6.6 0 0 1-.1-.4 3 3 0 0 1-.2-1c0-.7.1-1.5.1-2.2A31 31 0 0 1 18.7 4.8l1.4-.6a15.5 15.5 0 0 1-.4-2.1 2 2 0 0 1 .8-2zM64 41a2.6 2.6 0 0 1-1.1 1.6l-8.5 6.7-.8.5a1.3 1.3 0 0 1-1.8-.6.1.1 0 0 1-.1-.1l-.3-.9L49.6 37a2.8 2.8 0 0 1-.1-.9 1.3 1.3 0 0 1 1.7-1.3l1.3.5 2.1.8h.1c.1-.7.1-1.4.2-2.1a24.5 24.5 0 0 0-12-22 3.3 3.3 0 0 1-1.6-2.8 3 3 0 0 1 2.1-2.7 4 4 0 0 1 3.2.5 30.9 30.9 0 0 1 14.2 22.8 31.6 31.6 0 0 1-.3 8.7l2 .9a2.3 2.3 0 0 1 1.5 1.2zM16.6 53.4l1.8 1.1a23.6 23.6 0 0 0 13 3.3 23 23 0 0 0 11.1-3.2 2.8 2.8 0 0 1 4.3 2.3 3.4 3.4 0 0 1-1 2.7 9.1 9.1 0 0 1-1.6 1.1 29.9 29.9 0 0 1-11.3 3.2 29.4 29.4 0 0 1-16.2-3.3 31.5 31.5 0 0 1-4.7-3 .3.3 0 0 0-.5-.1l-2.1 1.8-1 .6a1.1 1.1 0 0 1-1.5-.6 5.6 5.6 0 0 1-.4-1.2c-.4-3.3-.8-6.7-1.3-10.1 0-.5-.1-1-.1-1.5a1.6 1.6 0 0 1 2.2-1.7l4.1 1.6 6.3 2.4.9.5a1.3 1.3 0 0 1 .4 1.8c0 .1 0 .1-.1.2a6 6 0 0 1-.8.8zm24.9-22.8c-.1-.7-.1-1.3-.2-2s-.1-.1-.1-.2a18.9 18.9 0 0 0-1-4.1 15.9 15.9 0 0 0-3.2-5.5l-.6-.5H36a1.1 1.1 0 0 0-.6.7 12.9 12.9 0 0 1-4.3 5.5l-2.6 1.7-2.9 2.1a7.2 7.2 0 0 0-2.7 5.1 18.7 18.7 0 0 0 .5 5.8 5.2 5.2 0 0 1 .2 1.1 17.3 17.3 0 0 1-6.4 1.2 31.1 31.1 0 0 1 .4 3.2l1.9-.3a24.1 24.1 0 0 0 6.5-2.3 18 18 0 0 0 7.2-6.2 26.7 26.7 0 0 0 3.8-9.2v-.2a17.9 17.9 0 0 1-2.5 10.6 19.4 19.4 0 0 1-8.1 7.2h.1a16.1 16.1 0 0 0 6.9 0 10.1 10.1 0 0 0 6.4-5 15.8 15.8 0 0 0 1.7-7.7 4.5 4.5 0 0 1 0-1z"/></svg>