<svg xmlns="http://www.w3.org/2000/svg" width="38.4" height="38.4" viewBox="0 0 32 32"><path d="M10.6 0L13 1l3.4 1.4a.5.5 0 0 1 .4.3.7.7 0 0 1 .2.9l-.3.4-4.5 3.7c-.6.5-1.3.3-1.4-.6l-.3-1.7a11.5 11.5 0 0 0-3.3 2 12.1 12.1 0 0 0-4 7.7 9.1 9.1 0 0 0-.1 1.7c0 .2 0 .3-.1.4a1.8 1.8 0 0 1-1.9 1.2 1.4 1.4 0 0 1-1-1 4.3 4.3 0 0 0-.1-.5 4.9 4.9 0 0 1 .1-1.2A15.3 15.3 0 0 1 9.3 2.4l.7-.3c0-.4-.1-.7-.1-1.1a.7.7 0 0 1 .4-.9zM32 20.5a1.6 1.6 0 0 1-.6.8l-4.2 3.4-.4.2a.6.6 0 0 1-.9-.3.1.1 0 0 1-.1-.1c0-.1-.1-.3-.1-.4l-.9-5.6V18a.6.6 0 0 1 .8-.6l.7.2 1 .5h.1V17a12.2 12.2 0 0 0-5.9-11 1.6 1.6 0 0 1-.8-1.4 1.2 1.2 0 0 1 1-1.3 1.8 1.8 0 0 1 1.6.2 15.3 15.3 0 0 1 7.1 11.4 13 13 0 0 1-.2 4.4l1.1.4a1.3 1.3 0 0 1 .7.6zM8.3 26.7l.9.6a12.3 12.3 0 0 0 6.5 1.6 11 11 0 0 0 5.6-1.6c1-.7 2 .2 2.1 1.2a1.3 1.3 0 0 1-.5 1.3l-.8.5a14.5 14.5 0 0 1-5.7 1.7 15.2 15.2 0 0 1-8.1-1.7A11.4 11.4 0 0 1 6 28.8a.2.2 0 0 0-.3 0l-1 .9-.5.2c-.3.2-.6 0-.8-.3a4.3 4.3 0 0 1-.1-.5c-.3-1.7-.5-3.4-.7-5.1 0-.2-.1-.5-.1-.8a.8.8 0 0 1 1.1-.8l2.1.8 3.2 1.2.4.2a.8.8 0 0 1 .2 1l-.4.4zm12.5-11.4c-.1-.3-.1-.7-.2-1a16 16 0 0 0-.5-2.1 9.2 9.2 0 0 0-1.6-2.7l-.3-.2H18l-.3.3a7.4 7.4 0 0 1-2.1 2.8l-1.3.9-1.5 1a3.5 3.5 0 0 0-1.3 2.6 8.8 8.8 0 0 0 .2 2.8c0 .2.1.4.1.6a8.7 8.7 0 0 1-3.2.6c.1.5.1 1 .2 1.6l.9-.2a11.7 11.7 0 0 0 3.3-1.2 9 9 0 0 0 3.6-3.1 13.2 13.2 0 0 0 1.9-4.6 7.9 7.9 0 0 1-1.2 5.2 9.8 9.8 0 0 1-4.1 3.7h.1a8.3 8.3 0 0 0 3.5 0 4.6 4.6 0 0 0 3.1-2.5 7.5 7.5 0 0 0 .9-3.9z"/></svg>