<svg xmlns="http://www.w3.org/2000/svg" width="19.2" height="19.2" viewBox="0 0 16 16"><path d="M5.3 0l1.2.5 1.7.7h.2c.2.1.2.3.1.5l-.2.3-2.2 1.8c-.3.3-.6.2-.7-.2s-.1-.6-.1-.9a5 5 0 0 0-1.7 1 6.2 6.2 0 0 0-2 3.8 2.8 2.8 0 0 1-.1.9v.2a.8.8 0 0 1-.9.6.6.6 0 0 1-.5-.5H0v-.9a7.7 7.7 0 0 1 4.7-6.6H5a1.3 1.3 0 0 0-.1-.7c0-.2 0-.4.2-.5zM16 10.2c0 .2-.1.3-.3.4l-2.1 1.7-.2.2c-.2 0-.4 0-.5-.2V12a23.3 23.3 0 0 1-.5-2.8V9c0-.2.2-.3.4-.3h.3l.5.2h.1v-.4a6.1 6.1 0 0 0-3-5.5 1 1 0 0 1-.4-.7.7.7 0 0 1 .6-.7.9.9 0 0 1 .7.1 8.1 8.1 0 0 1 3.6 5.8 5 5 0 0 1-.1 2.1l.5.2.4.3zM4.1 13.3l.5.3a6.2 6.2 0 0 0 3.2.9 5.5 5.5 0 0 0 2.8-.9.7.7 0 0 1 1.1.6.9.9 0 0 1-.3.7l-.3.3a9.6 9.6 0 0 1-2.9.8 7 7 0 0 1-4-.9L3 14.4h-.1l-.6.4-.2.2a.4.4 0 0 1-.4-.2c0-.1-.1-.2-.1-.3L1.3 12v-.4c0-.3.2-.5.5-.4l1 .4 1.6.6h.2a.4.4 0 0 1 .2.5h-.1l-.2.2zm6.3-5.7v-.4a1.7 1.7 0 0 0-.3-1 2.9 2.9 0 0 0-.8-1.4H9c-.1 0-.1.1-.1.2a3.5 3.5 0 0 1-1.1 1.1l-.7.5-.7.5a2.1 2.1 0 0 0-.7 1.3 6.6 6.6 0 0 0 .1 1.4.4.4 0 0 1 .1.3 4.1 4.1 0 0 1-1.6.3c0 .3.1.5.1.8h.5a5.2 5.2 0 0 0 1.6-.6A5.2 5.2 0 0 0 8.3 9a5 5 0 0 0 .9-2.3.1.1 0 0 0 .1-.1 4.2 4.2 0 0 1-.7 2.7 3.9 3.9 0 0 1-2 1.8h1.8A2.8 2.8 0 0 0 10 9.9a4.5 4.5 0 0 0 .4-2z"/></svg>